<?xml version="1.0" encoding="iso-8859-1"?>
<!-- Generator: Adobe Illustrator 18.0.0, SVG Export Plug-In . SVG Version: 6.00 Build 0)  -->
<!DOCTYPE svg PUBLIC "-//W3C//DTD SVG 1.1//EN" "http://www.w3.org/Graphics/SVG/1.1/DTD/svg11.dtd">
<svg version="1.1" id="Capa_1" xmlns="http://www.w3.org/2000/svg" xmlns:xlink="http://www.w3.org/1999/xlink" x="0px" y="0px"
	 viewBox="0 0 445.709 445.709" style="enable-background:new 0 0 445.709 445.709;" xml:space="preserve">
<g>
	<path d="M445.508,348.426l-29.547-89.574c-0.599-1.814-2.393-2.96-4.295-2.716l-11.923,1.489l-22.762-47.275
		c-0.484-1.008-1.37-1.767-2.439-2.092c-1.073-0.325-2.228-0.188-3.192,0.38l-30.958,18.211l-25.366,7.247
		c-0.948,0.271-1.763,0.882-2.287,1.716l-15.388,24.459l-4.149-1.509l-21.465-46.506c-0.579-1.254-1.765-2.121-3.136-2.292
		l-12.508-1.565l-23.103-53.311c-0.628-1.449-2.051-2.394-3.63-2.409c-0.014,0-0.027,0-0.04,0c-1.564,0-2.986,0.912-3.638,2.337
		l-28.964,63.357l-13.513,6.756c-0.908,0.454-1.609,1.237-1.962,2.189l-10.167,27.453l-27.71-25.322
		c-1.182-1.08-2.896-1.352-4.354-0.688l-15.841,7.2l-11.846-52.459c-0.345-1.527-1.549-2.713-3.081-3.034
		c-1.538-0.324-3.112,0.282-4.041,1.542l-48.328,65.59l-4.224-6.335c-0.817-1.227-2.238-1.897-3.713-1.763
		c-1.468,0.142-2.738,1.08-3.307,2.44L0.309,348.138c-0.516,1.235-0.379,2.646,0.362,3.759c0.742,1.113,1.991,1.782,3.329,1.782
		h343.511c0.004,0,0.009,0.001,0.014,0.001c0.003,0,0.006-0.001,0.009-0.001h94.176c1.283,0,2.489-0.616,3.241-1.656
		C445.702,350.983,445.91,349.645,445.508,348.426z M343.079,234.401c0.325-0.093,0.638-0.227,0.93-0.398l27.65-16.266
		l14.366,29.839l-38.565,8.069l-12.934-18.801L343.079,234.401z M288.901,265.71l8.705,3.166c0.005,0.002,0.011,0.004,0.016,0.006
		l10.025,3.646l33.633,73.151H117.776l34.385-64.677l13.924,1.547c1.831,0.205,3.556-0.864,4.192-2.586l6.257-16.895l0.001-0.002
		l4.391-11.857l8.441,9.678c0.729,0.836,1.771,1.331,2.879,1.369c1.107,0.022,2.182-0.386,2.964-1.17l15.551-15.552l7.333,24.934
		c0.439,1.49,1.7,2.592,3.236,2.825c0.201,0.031,0.402,0.046,0.603,0.046c1.323,0,2.578-0.658,3.327-1.781l15.862-23.793
		l22.413,20.813c0.936,0.868,2.233,1.237,3.488,0.994c1.255-0.245,2.317-1.075,2.858-2.234l9.283-19.893l7.47,16.184
		C287.083,264.596,287.899,265.346,288.901,265.71z M201.559,224.898c0.816-0.409,1.469-1.085,1.849-1.915l25.815-56.469
		l20.438,47.162c0.563,1.298,1.77,2.203,3.174,2.378l12.569,1.572l9.373,20.307l-9.821,21.045l-21.832-20.273
		c-0.859-0.797-2.022-1.183-3.189-1.041c-1.164,0.138-2.21,0.778-2.86,1.754l-13.719,20.578l-6.818-23.183
		c-0.398-1.354-1.481-2.398-2.85-2.747c-1.367-0.345-2.819,0.05-3.816,1.048l-17.288,17.288l-8.491-9.735l4.106-11.088
		L201.559,224.898z M105.452,193.803l10.647,47.15l-13.961,23.268l-17.066-7.758c-1.59-0.722-3.462-0.332-4.629,0.966
		l-12.561,13.956l-7.546-16.351L105.452,193.803z M49.14,251.915l3.072,4.608l10.95,23.726c0.563,1.222,1.703,2.078,3.033,2.279
		c0.2,0.03,0.4,0.045,0.599,0.045c1.125,0,2.209-0.475,2.974-1.324l14.661-16.29l17.648,8.021c1.852,0.842,4.04,0.16,5.085-1.584
		l15.981-26.634l16.778-7.627l28.158,25.732l-4.217,11.386l-13.516-1.502c-1.639-0.187-3.204,0.651-3.974,2.098l-37.657,70.83
		H10.004L49.14,251.915z M350.085,345.679l-35.868-78.011c-0.446-0.971-1.263-1.723-2.267-2.088l-6.909-2.513l13.653-21.7
		l7.717-2.205l15.968,23.21c0.755,1.099,1.995,1.732,3.295,1.732c0.272,0,0.546-0.027,0.819-0.085L389.6,255l4.182,8.686
		c0.746,1.549,2.394,2.459,4.101,2.233l11.511-1.438l26.784,81.197H350.085z"/>
	<path d="M310.625,160.029c18.748,0,34-15.252,34-34c0-18.748-15.252-34-34-34c-18.748,0-34,15.252-34,34
		C276.625,144.777,291.877,160.029,310.625,160.029z M310.625,100.029c14.337,0,26,11.663,26,26s-11.663,26-26,26
		c-14.337,0-26-11.663-26-26S296.288,100.029,310.625,100.029z"/>
</g>
<g>
</g>
<g>
</g>
<g>
</g>
<g>
</g>
<g>
</g>
<g>
</g>
<g>
</g>
<g>
</g>
<g>
</g>
<g>
</g>
<g>
</g>
<g>
</g>
<g>
</g>
<g>
</g>
<g>
</g>
</svg>
